<svg id="Capa_1" data-name="Capa 1" xmlns="http://www.w3.org/2000/svg" viewBox="0 0 1021.13 1021.13"><defs><style>.cls-1{fill:#fff;}.cls-2{fill:#e11d48;}</style></defs><circle class="cls-1" cx="510.56" cy="510.56" r="510.56"/><path class="cls-2" d="M593.13,923.53a483.41,483.41,0,0,1-54.88,42.57c-8.94,6-17.9,11.94-26.51,18.36-4.8,3.57-8.69,3.21-13.36,0-25-17.38-50.81-33.7-74.09-53.47-4.56-3.86-6.6-3.65-9.67,1.56-7.89,13.39-17.05,25.87-29.79,35.22-38.65,28.36-92.73,21-124.58-16.94-32-38.17-33.11-92.67-2.52-128,28.94-33.42,82.58-32,109.68,2.88,18.14,23.34,11.48,59.45-13.49,73.22-16.84,9.29-36.52,4.15-44.82-11.7-4.51-8.61-2.35-18.62,5.14-23.9s16.07-1.93,18.07,6.94c.57,2.53-.09,5.85,3.44,6.51,3.22.6,5.47-1.64,7.49-3.77,8.54-9,5.85-27.38-5.44-37.42-15.61-13.87-40.38-10.42-54.78,7.65-7.69,9.64-10.9,21.06-12.37,32.94-3,24.1,2.08,46.41,16.11,66.44a54.08,54.08,0,0,0,85.58,4.57c15.09-17.41,22.25-38.11,23.39-61,.24-4.81-1.2-10.47,5.16-12.49s12.05,0,16.11,5.29a203.35,203.35,0,0,0,29,30.87,283.93,283.93,0,0,0,54,36.36c3.27,1.69,6.43,3,10.17,1.21,24.13-11.9,46.26-26.59,64.58-46.52,6.25-6.8,11-14.71,15-23a48.42,48.42,0,0,1,2.82-5.33c3.65-5.71,8.8-8.26,15.51-6.43s9,7.15,8.69,13.45c-.94,17.31,4.07,33.22,11,48.66,10.1,22.32,27.35,35.09,51.8,37.4,23.65,2.24,41.8-7.47,55.25-26.66,16.32-23.28,22-48.6,15.36-76.57-5.8-24.3-25.15-39.27-48.18-36.77-20,2.17-34.86,23-28.33,39.88,2.58,6.66,7.51,9.92,13.38,8.57,2.37-.54,4.88-1.31,5.21-4.42.35-3.44,1.55-6,5.57-6.31,4.56-.3,8.39.88,11,4.88,3.86,5.83,3.1,15.54-1.48,21.49-15.2,19.74-44.86,13.7-56.72-5.14-18.5-29.38-2.49-70.82,35.07-84.52,45-16.43,90.41,10.15,100.83,58.93,9.46,44.23-9.19,87.25-48.66,112.26-36.23,22.95-82.45,20.3-117.81-6.79-12.17-9.32-19.31-22.17-25-36C594.56,927,594,925.55,593.13,923.53Z" transform="translate(-1.38 -1.94)"/><path class="cls-2" d="M614,200.18c-2.37-33.2-11.06-65.26-20.45-97.05-7.06-23.95-17-46.68-31.49-67.2-8.48-12-17.86-23-30.15-31.4-2.11-1.44-4.27-1.27-6.48-1.53,0,1.74-.34,3.57.06,5.21,5.92,23.84,1.23,45.85-11.74,66.25C499.63,96.58,485,118.35,471,140.53c-17.66,28-26.46,58.37-21.33,91.67,6.15,39.84,25.48,70.88,61.83,90.13,4,2.11,8,3.87,13.14,3.3-.37-5.78-2.7-10.36-5.19-14.91-3.76-6.86-7.75-13.64-11.06-20.72-10.17-21.76-14.34-44.29-7.44-67.93,3-10.47,9.59-17.73,20.6-19.91a92.91,92.91,0,0,1,24.81-1.47c12.72.92,21.89,8.07,24.21,19.59a67,67,0,0,1,1.06,20.11c-2.24,21.46-11.41,40.38-21.26,59.05-7.09,13.45-15.37,26.25-21.57,40.18-5,11.31-7.88,22.87-4.89,35.27.58,2.38,1.21,5.43,3.93,5.63,2.25.16,3.46-2.55,4.35-4.58,5-11.43,12.4-21.27,20.33-30.75,6.9-8.28,13.75-16.59,20.82-24.72C603.42,285.94,617.22,245.76,614,200.18Zm-56.54-43.33c-6.26,12.49-16.06,20.55-29.63,24.16-4.84,1.3-9,.36-12.32-3.1-3.47-3.62-3.31-8-1.4-12.48,4.17-9.7,9.83-18.54,15.56-27.35,10.08-15.51,24.1-29.34,22-50.51C563.68,110.08,569.45,132.8,557.42,156.85Z" transform="translate(-1.38 -1.94)"/><path class="cls-2" d="M558.4,508.09c2.23,5.6,4.31,11.1,6.62,16.5a75,75,0,0,0,4.55,8.93c3.4,5.71,8.84,7.78,14.82,5.79s7.86-7.61,7.4-13.48-1.88-11.83-2.63-17.77c-5-39.09,9.12-71.95,33.49-101.32,2.24-2.69,5.54-4.52,8.42-6.64s7.22-3.57,4.38-8.78c-2.58-4.75-6.5-6.4-11.4-4.88a50.37,50.37,0,0,0-9.69,4.64c-24.92,14-51.43,23.16-79.87,26.6a165.5,165.5,0,0,1-82.55-11c-3.26-1.3-6.53-2.58-11-4.35,37.3,64.85,43.24,133.76,36.19,205.5-10.2-5.16-15.09-11.18-14.77-23.12,1-37-.71-74-7.45-110.46-4.47-24.18-12.71-47.15-29.18-66.27a49.11,49.11,0,0,1-5-7,10.43,10.43,0,0,1,.69-12.16,11.49,11.49,0,0,1,11.14-5,23.14,23.14,0,0,1,10,3.76c21.47,13.42,45.17,17.78,70.07,17.79,6.35,0,9.62-1.52,7.83-8.68-.47-1.9-2.41-6.51,2.22-5.7,4,.7,10.44-4.74,12.15,3.79,1.79,8.95,4.31,10.61,12.93,8,21.53-6.49,43.07-12.94,63.39-22.84,12.09-5.89,24.13-8.09,35.29,2.23,9.9,9.15,10.45,20.83-.66,28-20.84,13.45-27.24,34.32-31.94,56.4-4.49,21.07-2.64,42.6-3.89,63.91-.63,10.87-3.73,20.23-11.63,27.72-3.67,3.48-4.48,7.55-4.45,12.35.45,67.49.93,135,1.08,202.48,0,20.64-.27,41.45-4.35,61.7-10.33,51.28-50.55,82.42-94.62,79.62-23-1.46-42.22-12.35-57.47-29.28-11-12.19-12-26.74-5.6-41.73,4.1-9.53,10.15-17.92,16.25-26.21,9.52-12.93,15.13-27.12,15-43.36a24.33,24.33,0,0,1,.65-4.94c.82-4,2.88-3.32,4.64-.85a22.16,22.16,0,0,1,3,6.44c5.21,17.45,2.53,33.75-7.88,48.61-5.4,7.7-9.53,16-13.47,24.49-4.72,10.15-3.33,19.57,3,28.5,14.48,20.38,45.18,25.31,69.37,10.55,19.82-12.09,31.92-30.8,41.22-51.42,7.37-16.33,10.75-33.69,11.53-51.59,3-69.14,3.18-138.31,2.66-207.49,0-7.57-2-12.12-9.35-15.68C549.31,550.69,543.91,524.07,558.4,508.09Z" transform="translate(-1.38 -1.94)"/></svg>