<svg id="Capa_1" data-name="Capa 1" xmlns="http://www.w3.org/2000/svg" viewBox="0 0 720 1279.95"><defs><style>.cls-1{fill:#fff;}</style></defs><path class="cls-1" d="M465.22,1197.21a631.71,631.71,0,0,1-71.39,55.38c-11.64,7.75-23.28,15.53-34.49,23.88-6.24,4.64-11.3,4.16-17.37,0-32.55-22.62-66.1-43.85-96.38-69.56-5.93-5-8.58-4.75-12.58,2-10.27,17.41-22.17,33.64-38.75,45.81-50.27,36.89-120.62,27.32-162-22-41.67-49.64-43.07-120.54-3.27-166.49,37.64-43.47,107.41-41.64,142.67,3.75,23.58,30.36,14.93,77.32-17.55,95.23-21.91,12.09-47.51,5.4-58.3-15.21-5.87-11.2-3.07-24.23,6.68-31.09s20.9-2.51,23.51,9c.74,3.29-.12,7.61,4.47,8.47,4.19.78,7.12-2.13,9.75-4.91,11.11-11.74,7.6-35.6-7.09-48.66-20.3-18-52.51-13.56-71.25,10-10,12.54-14.18,27.39-16.09,42.85-3.87,31.34,2.7,60.36,21,86.41a70.33,70.33,0,0,0,111.31,6c19.64-22.64,29-49.57,30.43-79.33.31-6.26-1.56-13.62,6.71-16.24s15.67,0,21,6.87a264.29,264.29,0,0,0,37.74,40.16,369.16,369.16,0,0,0,70.19,47.3c4.25,2.19,8.36,4,13.22,1.56,31.38-15.48,60.18-34.58,84-60.5,8.13-8.85,14.3-19.13,19.49-30a63.73,63.73,0,0,1,3.66-6.94c4.76-7.43,11.46-10.75,20.18-8.37s11.75,9.31,11.31,17.49c-1.23,22.53,5.29,43.23,14.38,63.31,13.13,29,35.57,45.64,67.37,48.65,30.76,2.91,54.37-9.72,71.87-34.68,21.23-30.28,28.67-63.22,20-99.6-7.55-31.61-32.72-51.08-62.67-47.84-26.07,2.82-45.35,30-36.85,51.88,3.36,8.67,9.77,12.9,17.4,11.15,3.08-.7,6.35-1.71,6.77-5.75.47-4.47,2-7.86,7.25-8.21,5.94-.39,10.91,1.15,14.37,6.35,5,7.59,4,20.21-1.92,28-19.77,25.69-58.35,17.82-73.78-6.68-24.06-38.22-3.24-92.12,45.62-110,58.55-21.36,117.6,13.21,131.16,76.66,12.3,57.53-12,113.5-63.3,146-47.12,29.85-107.25,26.4-153.25-8.84-15.83-12.13-25.11-28.83-32.48-46.85C467.07,1201.68,466.3,1199.83,465.22,1197.21Z" transform="translate(0 0.19)"/><path class="cls-1" d="M492.31,256.29c-3.08-43.18-14.39-84.88-26.6-126.23-9.19-31.16-22.09-60.72-41-87.41-11-15.59-23.23-30-39.22-40.85-2.74-1.87-5.55-1.65-8.42-2,0,2.27-.45,4.64.08,6.78,7.7,31,1.6,59.64-15.27,86.17-18.31,28.78-37.34,57.09-55.52,86-23,36.46-34.42,75.92-27.75,119.24,8,51.82,33.15,92.2,80.43,117.23,5.18,2.75,10.46,5,17.1,4.3-.49-7.52-3.51-13.48-6.76-19.39-4.89-8.94-10.07-17.75-14.38-27-13.23-28.3-18.66-57.61-9.69-88.35,4-13.62,12.48-23.07,26.8-25.91A120.77,120.77,0,0,1,404.41,257c16.56,1.2,28.48,10.5,31.49,25.49a87.07,87.07,0,0,1,1.39,26.16c-2.92,27.9-14.85,52.51-27.66,76.8-9.22,17.5-20,34.15-28.06,52.27-6.55,14.71-10.25,29.75-6.35,45.87.75,3.1,1.56,7.07,5.1,7.33,2.93.21,4.5-3.31,5.67-5.95,6.49-14.88,16.13-27.68,26.43-40,9-10.76,17.89-21.58,27.09-32.15C478.6,367.85,496.55,315.58,492.31,256.29Zm-73.55-56.36c-8.14,16.25-20.89,26.74-38.54,31.44-6.3,1.68-11.72.46-16-4-4.51-4.72-4.3-10.44-1.81-16.24,5.42-12.62,12.77-24.11,20.23-35.57,13.12-20.18,31.35-38.16,28.56-65.71C426.91,139.09,434.42,168.65,418.76,199.93Z" transform="translate(0 0.19)"/><path class="cls-1" d="M420,656.82c2.9,7.28,5.6,14.44,8.61,21.46a97.42,97.42,0,0,0,5.91,11.61c4.43,7.43,11.51,10.13,19.29,7.53s10.22-9.9,9.62-17.53S461,664.5,460,656.78c-6.46-50.85,11.87-93.59,43.58-131.79,2.9-3.5,7.19-5.89,11-8.64s9.39-4.64,5.7-11.43c-3.36-6.17-8.47-8.32-14.84-6.35-4.41,1.37-8.55,3.76-12.61,6-32.4,18.24-66.89,30.13-103.89,34.6s-72.79-.47-107.38-14.31c-4.24-1.7-8.49-3.37-14.32-5.67,48.52,84.36,56.25,174,47.08,267.32C301,779.83,294.69,772,295.1,756.47c1.29-48.11-.93-96.26-9.7-143.69-5.81-31.45-16.52-61.33-37.95-86.2a63.13,63.13,0,0,1-6.55-9.05c-3.14-5.36-2.77-10.78.89-15.82a15,15,0,0,1,14.5-6.45,30.12,30.12,0,0,1,13,4.89c27.92,17.46,58.76,23.13,91.14,23.15,8.26,0,12.51-2,10.2-11.3-.62-2.47-3.14-8.46,2.88-7.42,5.24.92,13.58-6.16,15.8,4.93,2.33,11.64,5.61,13.81,16.82,10.44,28-8.45,56-16.83,82.46-29.71,15.72-7.66,31.39-10.52,45.9,2.89,12.88,11.91,13.6,27.11-.86,36.44-27.1,17.5-35.43,44.64-41.55,73.37-5.83,27.4-3.43,55.41-5.05,83.12-.82,14.14-4.85,26.33-15.13,36.07-4.78,4.52-5.83,9.82-5.79,16.06.58,87.79,1.21,175.58,1.4,263.38.06,26.85-.34,53.92-5.65,80.26-13.44,66.7-65.75,107.21-123.08,103.57-29.93-1.9-54.92-16.07-74.75-38.09-14.28-15.85-15.68-34.79-7.29-54.29,5.34-12.39,13.2-23.3,21.14-34.08,12.38-16.83,19.68-35.28,19.47-56.41a30.48,30.48,0,0,1,.85-6.42c1.07-5.19,3.74-4.32,6-1.11a28.64,28.64,0,0,1,3.9,8.38c6.78,22.7,3.29,43.9-10.25,63.23-7,10-12.39,20.84-17.52,31.86-6.14,13.19-4.34,25.46,3.91,37.06,18.83,26.52,58.76,32.93,90.23,13.73,25.78-15.72,41.52-40.07,53.62-66.88,9.58-21.25,14-43.83,15-67.11,3.89-89.93,4.14-179.91,3.47-269.9-.07-9.85-2.65-15.77-12.16-20.4C408.22,712.23,401.18,677.6,420,656.82Z" transform="translate(0 0.19)"/></svg>